<?xml version="1.0" encoding="utf-8"?>
<!-- Generator: Adobe Illustrator 17.0.0, SVG Export Plug-In . SVG Version: 6.00 Build 0)  -->
<!DOCTYPE svg PUBLIC "-//W3C//DTD SVG 1.1//EN" "http://www.w3.org/Graphics/SVG/1.1/DTD/svg11.dtd">
<svg version="1.1" id="Layer_1" xmlns="http://www.w3.org/2000/svg" xmlns:xlink="http://www.w3.org/1999/xlink" x="0px" y="0px"
	 width="100px" height="100px" viewBox="0 0 100 100" enable-background="new 0 0 100 100" xml:space="preserve">
<g>
	<g>
		<path fill="#DD3A51" d="M21.531,67.948h-4.436v-3.896H14.5v10h2.596v-3.955h4.436v3.955h2.58v-10h-2.58V67.948z M32.451,64.052
			l-4.404,10h2.784l0.739-1.821h4.436l0.739,1.821h2.768l-4.404-10H32.451z M32.451,70.112l1.337-3.284l1.353,3.284H32.451z
			 M48.423,64.052h-5.191v10h2.595v-3.06h2.485c2.438,0,3.98-1.388,3.98-3.492C52.292,65.44,50.798,64.052,48.423,64.052z
			 M48.124,68.933h-2.297v-2.776h2.297c1.007,0,1.62,0.567,1.62,1.373C49.744,68.38,49.131,68.933,48.124,68.933z M57.774,66.015
			c-0.834,0-1.432,0.627-1.432,1.343c0,0.761,0.598,1.343,1.432,1.343c0.834,0,1.447-0.582,1.447-1.343
			C59.221,66.642,58.607,66.015,57.774,66.015z M57.774,70.806c-0.834,0-1.432,0.627-1.432,1.343c0,0.761,0.598,1.343,1.432,1.343
			c0.834,0,1.447-0.582,1.447-1.343C59.221,71.433,58.607,70.806,57.774,70.806z M66.493,64.052h-5.191v10h2.595v-3.06h2.485
			c2.438,0,3.98-1.388,3.98-3.492C70.363,65.44,68.869,64.052,66.493,64.052z M66.194,68.933h-2.297v-2.776h2.297
			c1.007,0,1.62,0.567,1.62,1.373C67.815,68.38,67.201,68.933,66.194,68.933z M81.606,64.052l-2.564,4.388l-2.595-4.388h-2.832
			l4.074,6.896v3.104h2.643v-3.134l4.169-6.866H81.606z"/>
	</g>
</g>
</svg>
