<?xml version="1.0" encoding="utf-8"?>
<!-- Generator: Adobe Illustrator 17.0.0, SVG Export Plug-In . SVG Version: 6.00 Build 0)  -->
<!DOCTYPE svg PUBLIC "-//W3C//DTD SVG 1.1//EN" "http://www.w3.org/Graphics/SVG/1.1/DTD/svg11.dtd">
<svg version="1.1" id="Layer_1" xmlns="http://www.w3.org/2000/svg" xmlns:xlink="http://www.w3.org/1999/xlink" x="0px" y="0px"
	 width="100px" height="100px" viewBox="0 0 100 100" enable-background="new 0 0 100 100" xml:space="preserve">
<g>
	<g>
		<path fill="#71777D" d="M21.531,49.396h-4.436V45.5H14.5v10h2.596v-3.955h4.436V55.5h2.58v-10h-2.58V49.396z M32.451,45.5
			l-4.404,10h2.784l0.739-1.821h4.436l0.739,1.821h2.768l-4.404-10H32.451z M32.451,51.56l1.337-3.284l1.353,3.284H32.451z
			 M48.423,45.5h-5.191v10h2.595v-3.06h2.485c2.438,0,3.98-1.388,3.98-3.492C52.292,46.888,50.798,45.5,48.423,45.5z M48.124,50.381
			h-2.297v-2.776h2.297c1.007,0,1.62,0.567,1.62,1.373C49.744,49.828,49.131,50.381,48.124,50.381z M57.774,52.254
			c-0.834,0-1.432,0.627-1.432,1.343c0,0.761,0.598,1.343,1.432,1.343c0.834,0,1.447-0.582,1.447-1.343
			C59.221,52.88,58.607,52.254,57.774,52.254z M57.774,47.463c-0.834,0-1.432,0.627-1.432,1.343c0,0.761,0.598,1.343,1.432,1.343
			c0.834,0,1.447-0.582,1.447-1.343C59.221,48.089,58.607,47.463,57.774,47.463z M66.493,45.5h-5.191v10h2.595v-3.06h2.485
			c2.438,0,3.98-1.388,3.98-3.492C70.363,46.888,68.869,45.5,66.493,45.5z M66.194,50.381h-2.297v-2.776h2.297
			c1.007,0,1.62,0.567,1.62,1.373C67.815,49.828,67.201,50.381,66.194,50.381z M81.606,45.5l-2.564,4.388L76.446,45.5h-2.832
			l4.074,6.896V55.5h2.643v-3.134L84.5,45.5H81.606z"/>
	</g>
</g>
</svg>
